<svg viewBox="0 0 48 48" xmlns="http://www.w3.org/2000/svg">
  <!-- 4x4 board with progressive tile values -->
  <rect x="3" y="3" width="42" height="42" fill="none" stroke="#0f0e0c" stroke-width="1.5"/>
  <!-- Tile backgrounds with progressive intensity -->
  <rect x="4" y="4" width="9.5" height="9.5" fill="#0f0e0c" opacity=".08"/>
  <rect x="14.5" y="4" width="9.5" height="9.5" fill="#0f0e0c" opacity=".15"/>
  <rect x="25" y="4" width="9.5" height="9.5" fill="#0f0e0c" opacity=".25"/>
  <rect x="35.5" y="4" width="9.5" height="9.5" fill="#c8961e" opacity=".35"/>
  <rect x="14.5" y="14.5" width="9.5" height="9.5" fill="#0f0e0c" opacity=".15"/>
  <rect x="25" y="14.5" width="9.5" height="9.5" fill="#0f0e0c" opacity=".25"/>
  <rect x="35.5" y="14.5" width="9.5" height="9.5" fill="#c8961e" opacity=".5"/>
  <rect x="4" y="25" width="9.5" height="9.5" fill="#0f0e0c" opacity=".08"/>
  <rect x="25" y="25" width="9.5" height="9.5" fill="#c8961e" opacity=".6"/>
  <rect x="35.5" y="25" width="9.5" height="9.5" fill="#c8961e" opacity=".8"/>
  <rect x="35.5" y="35.5" width="9.5" height="9.5" fill="#c8961e"/>
  <!-- Numbers -->
  <text x="8.75" y="11.5" font-family="Georgia,serif" font-size="5" font-weight="900" fill="#0f0e0c" text-anchor="middle">2</text>
  <text x="19.25" y="11.5" font-family="Georgia,serif" font-size="5" font-weight="900" fill="#0f0e0c" text-anchor="middle">4</text>
  <text x="29.75" y="11.5" font-family="Georgia,serif" font-size="5" font-weight="900" fill="#0f0e0c" text-anchor="middle">8</text>
  <text x="40.25" y="11.5" font-family="Georgia,serif" font-size="5" font-weight="900" fill="#0f0e0c" text-anchor="middle">16</text>
  <text x="19.25" y="22" font-family="Georgia,serif" font-size="5" font-weight="900" fill="#0f0e0c" text-anchor="middle">4</text>
  <text x="29.75" y="22" font-family="Georgia,serif" font-size="5" font-weight="900" fill="#0f0e0c" text-anchor="middle">8</text>
  <text x="40.25" y="22" font-family="Georgia,serif" font-size="5" font-weight="900" fill="#0f0e0c" text-anchor="middle">32</text>
  <text x="8.75" y="32.5" font-family="Georgia,serif" font-size="5" font-weight="900" fill="#0f0e0c" text-anchor="middle">2</text>
  <text x="29.75" y="32.5" font-family="Georgia,serif" font-size="5" font-weight="900" fill="#0f0e0c" text-anchor="middle">64</text>
  <text x="40.25" y="32.5" font-family="Georgia,serif" font-size="5" font-weight="900" fill="#0f0e0c" text-anchor="middle">128</text>
  <text x="40.25" y="43" font-family="Georgia,serif" font-size="4" font-weight="900" fill="#faf8f3" text-anchor="middle">2048</text>
</svg>
