<svg viewBox="0 0 48 48" xmlns="http://www.w3.org/2000/svg">
  <!-- Background grid dots -->
  <g fill="#0f0e0c" opacity=".2">
    <circle cx="6" cy="6" r=".8"/><circle cx="6" cy="15" r=".8"/><circle cx="6" cy="24" r=".8"/><circle cx="6" cy="33" r=".8"/><circle cx="6" cy="42" r=".8"/>
    <circle cx="15" cy="6" r=".8"/><circle cx="15" cy="15" r=".8"/><circle cx="15" cy="24" r=".8"/><circle cx="15" cy="33" r=".8"/><circle cx="15" cy="42" r=".8"/>
    <circle cx="24" cy="6" r=".8"/><circle cx="24" cy="15" r=".8"/><circle cx="24" cy="24" r=".8"/><circle cx="24" cy="33" r=".8"/><circle cx="24" cy="42" r=".8"/>
    <circle cx="33" cy="6" r=".8"/><circle cx="33" cy="15" r=".8"/><circle cx="33" cy="24" r=".8"/><circle cx="33" cy="33" r=".8"/><circle cx="33" cy="42" r=".8"/>
    <circle cx="42" cy="6" r=".8"/><circle cx="42" cy="15" r=".8"/><circle cx="42" cy="24" r=".8"/><circle cx="42" cy="33" r=".8"/><circle cx="42" cy="42" r=".8"/>
  </g>
  <!-- Rectangles (shikaku divisions) -->
  <rect x="6" y="6" width="18" height="9" fill="none" stroke="#0f0e0c" stroke-width="1.8"/>
  <rect x="24" y="6" width="18" height="18" fill="none" stroke="#0f0e0c" stroke-width="1.8"/>
  <rect x="6" y="15" width="9" height="18" fill="none" stroke="#0f0e0c" stroke-width="1.8"/>
  <rect x="15" y="15" width="9" height="9" fill="none" stroke="#c8961e" stroke-width="2"/>
  <rect x="15" y="15" width="9" height="9" fill="#c8961e" opacity=".1"/>
  <rect x="6" y="33" width="18" height="9" fill="none" stroke="#0f0e0c" stroke-width="1.8"/>
  <rect x="24" y="24" width="9" height="18" fill="none" stroke="#0f0e0c" stroke-width="1.8"/>
  <rect x="33" y="24" width="9" height="18" fill="none" stroke="#0f0e0c" stroke-width="1.8"/>
  <!-- Clue numbers -->
  <text x="15" y="13" font-family="'Epilogue',sans-serif" font-size="7" font-weight="600" fill="#0f0e0c" text-anchor="middle">2</text>
  <text x="33" y="18" font-family="'Epilogue',sans-serif" font-size="7" font-weight="600" fill="#0f0e0c" text-anchor="middle">4</text>
  <text x="10.5" y="27" font-family="'Epilogue',sans-serif" font-size="7" font-weight="600" fill="#0f0e0c" text-anchor="middle">2</text>
  <text x="19.5" y="22" font-family="'Epilogue',sans-serif" font-size="7" font-weight="700" fill="#c8961e" text-anchor="middle">1</text>
</svg>
